<svg width="81" height="81" viewBox="0 0 81 81" fill="none" xmlns="http://www.w3.org/2000/svg">
<path d="M24.0079 18.9409C29.8503 17.3762 35.8556 20.8416 37.4211 26.681L37.5703 27.2374C39.1357 33.0768 35.6686 39.079 29.8262 40.6436C28.7533 40.9309 27.6749 41.0475 26.6195 41.012C26.8505 43.6429 27.698 46.1887 29.1005 48.4402C30.6495 50.9268 32.8196 52.9648 35.3943 54.3551C36.5263 51.0001 39.2627 48.2559 42.941 47.2707C48.7834 45.7061 54.7886 49.1714 56.3541 55.0108L56.6525 56.1238C58.2179 61.9632 54.7508 67.9653 48.9084 69.53C47.3775 69.9399 45.8355 70.0036 44.365 69.7705C39.2473 69.9333 34.1655 68.7958 29.5987 66.4561C24.7195 63.9563 20.6112 60.1783 17.7133 55.5262C14.8155 50.8742 13.2366 45.5228 13.1453 40.0436C13.058 34.7998 14.3374 29.6281 16.8504 25.0334C18.1528 22.1365 20.6993 19.827 24.0079 18.9409Z" fill="#F0893B"/>
<path d="M62.6655 20.25C67.549 20.25 71.5078 24.1785 71.5078 29.0246C71.5078 31.3348 70.6062 33.4348 69.1355 35.0018L57.5737 46.569C57.0808 47.0621 56.282 47.0638 55.7871 46.5727L44.1794 35.0546C44.1781 35.0533 44.178 35.0514 44.1791 35.05C44.1802 35.0487 44.1802 35.0468 44.179 35.0455C42.6839 33.4741 41.7656 31.3563 41.7656 29.0246C41.7656 24.1785 45.7244 20.25 50.6079 20.25C52.5162 20.25 54.2825 20.8507 55.7271 21.8711C56.2671 22.2525 57.0063 22.2525 57.5463 21.8711C58.9909 20.8507 60.7573 20.25 62.6655 20.25Z" fill="#F36845"/>
<path d="M57.8763 30.0847C57.8763 30.7837 58.4429 31.3503 59.1419 31.3503H62.0156C62.7146 31.3503 63.2812 31.917 63.2812 32.6159V33.1966C63.2812 33.8955 62.7146 34.4622 62.0156 34.4622H59.1419C58.4429 34.4622 57.8763 35.0288 57.8763 35.7278V38.6016C57.8763 39.3005 57.3096 39.8672 56.6106 39.8672H56.03C55.331 39.8672 54.7644 39.3005 54.7644 38.6016V35.7278C54.7644 35.0288 54.1977 34.4622 53.4987 34.4622H50.625C49.926 34.4622 49.3594 33.8955 49.3594 33.1966V32.6159C49.3594 31.917 49.926 31.3503 50.625 31.3503H53.4987C54.1977 31.3503 54.7644 30.7837 54.7644 30.0847V27.2109C54.7644 26.512 55.331 25.9453 56.03 25.9453H56.6106C57.3096 25.9453 57.8763 26.512 57.8763 27.2109V30.0847Z" fill="white"/>
</svg>
